<svg xmlns="http://www.w3.org/2000/svg" version="1.1" xmlns:xlink="http://www.w3.org/1999/xlink" xmlns:svgjs="http://svgjs.dev/svgjs" width="2000" height="1500" viewBox="0 0 2000 1500"><rect width="2000" height="1500" fill="#ffffff"></rect><g transform="matrix(0.75,0,0,0.75,249.090909090909,533.8068733309158)"><svg viewBox="0 0 396 114" data-background-color="#ffffff" preserveAspectRatio="xMidYMid meet" height="575" width="2000" xmlns="http://www.w3.org/2000/svg" xmlns:xlink="http://www.w3.org/1999/xlink"><g id="tight-bounds" transform="matrix(1,0,0,1,0.2400000000000091,0.15018304991443188)"><svg viewBox="0 0 395.52 113.69963390017114" height="113.69963390017114" width="395.52"><g><svg viewBox="0 0 582.3846482769511 167.4173778776529" height="113.69963390017114" width="395.52"><g transform="matrix(1,0,0,1,186.86464827695107,23.138002297128587)"><svg viewBox="0 0 395.52 121.14137328339574" height="121.14137328339574" width="395.52"><g id="textblocktransform"><svg viewBox="0 0 395.52 121.14137328339574" height="121.14137328339574" width="395.52" id="textblock"><g><svg viewBox="0 0 395.52 121.14137328339574" height="121.14137328339574" width="395.52"><g transform="matrix(1,0,0,1,0,0)"><svg width="395.52" viewBox="1.4 -36.25 120.14 36.800000000000004" height="121.14137328339574" data-palette-color="#336a86"><path d="M7.55 0L1.4 0.15 1.4-1 2.2-1.1Q3.65-1.3 4.42-1.58 5.2-1.85 5.5-2.83 5.8-3.8 5.8-6.05L5.8-6.05 5.8-16.6Q5.8-19.2 4.73-19.93 3.65-20.65 1.75-20.65L1.75-20.65 1.4-20.65 1.4-21.8Q3.45-21.8 5.35-21.93 7.25-22.05 9.3-22.4L9.3-22.4 9.3-18.35Q10.45-20.05 12.55-21.38 14.65-22.7 17.45-22.7L17.45-22.7Q20.85-22.7 22.83-20.98 24.8-19.25 24.8-16.05L24.8-16.05 24.8-6.05Q24.8-3.8 25.1-2.83 25.4-1.85 26.18-1.58 26.95-1.3 28.4-1.1L28.4-1.1 29.2-1 29.2 0.15 23.05 0 16.9 0.15 16.9-1 17.7-1.1Q19.15-1.3 19.93-1.58 20.7-1.85 21-2.83 21.3-3.8 21.3-6.05L21.3-6.05 21.3-16.05Q21.3-18.55 20-19.88 18.7-21.2 16.35-21.2L16.35-21.2Q14.55-21.2 13.1-20.38 11.65-19.55 10.7-18.35 9.75-17.15 9.3-16.05L9.3-16.05 9.3-6.05Q9.3-3.8 9.6-2.83 9.9-1.85 10.68-1.58 11.45-1.3 12.9-1.1L12.9-1.1 13.7-1 13.7 0.15 7.55 0ZM37.8 0.55L37.8 0.55Q35.4 0.55 33.82-0.68 32.25-1.9 32.25-4.1L32.25-4.1Q32.25-6.3 34.2-8.03 36.15-9.75 38.75-11.15L38.75-11.15Q40.7-12.25 42.65-13.05 44.6-13.85 46-14.4L46-14.4 46-16Q46-18.75 44.97-20.1 43.95-21.45 41.1-21.45L41.1-21.45Q39.75-21.45 38.45-21.1 37.15-20.75 37.15-19.8L37.15-19.8Q37.15-19.6 37.22-19.35 37.3-19.1 37.35-18.85L37.35-18.85Q37.6-18.2 37.6-17.5L37.6-17.5Q37.6-16.55 36.92-16.03 36.25-15.5 35.3-15.5L35.3-15.5Q34.4-15.5 33.8-16.18 33.2-16.85 33.2-17.8L33.2-17.8Q33.2-19.6 34.57-20.68 35.95-21.75 37.95-22.23 39.95-22.7 41.8-22.7L41.8-22.7Q45.8-22.7 47.65-20.85 49.5-19 49.5-14.8L49.5-14.8 49.5-5.8Q49.5-3.6 49.82-2.4 50.15-1.2 51.3-1.2L51.3-1.2Q52.05-1.2 52.6-1.75 53.15-2.3 53.35-2.95L53.35-2.95 54.25-2.6Q53.85-1.15 52.82-0.3 51.8 0.55 50 0.55L50 0.55Q47.8 0.55 46.97-0.73 46.15-2 46.05-4.1L46.05-4.1Q44.65-1.85 42.5-0.65 40.35 0.55 37.8 0.55ZM36.15-4.35L36.15-4.35Q36.15-2.95 36.97-2.13 37.8-1.3 39.4-1.3L39.4-1.3Q40.85-1.3 42.17-2 43.5-2.7 44.5-3.78 45.5-4.85 46-6.1L46-6.1 46-13.4Q44.35-12.7 42.62-11.78 40.9-10.85 39.42-9.7 37.95-8.55 37.05-7.23 36.15-5.9 36.15-4.35ZM61.15 0L55 0.15 55-1 55.8-1.1Q57.25-1.3 58.02-1.58 58.8-1.85 59.1-2.83 59.4-3.8 59.4-6.05L59.4-6.05 59.4-30.45Q59.4-33.05 58.32-33.77 57.25-34.5 55.35-34.5L55.35-34.5 55-34.5 55-35.65Q57.05-35.65 58.95-35.77 60.85-35.9 62.9-36.25L62.9-36.25 62.9-6.05Q62.9-3.8 63.2-2.83 63.5-1.85 64.27-1.58 65.05-1.3 66.5-1.1L66.5-1.1 67.3-1 67.3 0.15 61.15 0ZM81.79 0.55L81.79 0.55Q78.59 0.55 75.97-1 73.34-2.55 71.82-5.18 70.29-7.8 70.29-11L70.29-11Q70.29-14.3 71.82-16.95 73.34-19.6 75.97-21.15 78.59-22.7 81.79-22.7L81.79-22.7Q85.04-22.7 87.64-21.15 90.24-19.6 91.77-16.95 93.29-14.3 93.29-11L93.29-11Q93.29-7.8 91.77-5.18 90.24-2.55 87.64-1 85.04 0.55 81.79 0.55ZM81.79-0.7L81.79-0.7Q84.49-0.7 86.14-2.08 87.79-3.45 88.54-5.78 89.29-8.1 89.29-11L89.29-11Q89.29-14 88.54-16.35 87.79-18.7 86.14-20.08 84.49-21.45 81.79-21.45L81.79-21.45Q79.09-21.45 77.44-20.08 75.79-18.7 75.04-16.35 74.29-14 74.29-11L74.29-11Q74.29-8.1 75.04-5.78 75.79-3.45 77.44-2.08 79.09-0.7 81.79-0.7ZM99.89 0L95.04 0.15 95.04-1 95.69-1.1Q97.99-1.45 99.47-2.68 100.94-3.9 102.14-5.25L102.14-5.25 106.54-10.2 99.49-17.95Q98.29-19.25 97.52-19.88 96.74-20.5 95.69-20.6L95.69-20.6 95.24-20.65 95.24-21.8 100.84-21.65 106.44-21.8 106.44-20.65 105.64-20.5Q105.44-20.45 104.94-20.3 104.44-20.15 104.02-19.88 103.59-19.6 103.59-19.1L103.59-19.1Q103.59-18.5 104.44-17.5L104.44-17.5 108.99-12.5 113.44-17.5Q114.14-18.25 114.14-19L114.14-19Q114.14-19.6 113.39-20.03 112.64-20.45 111.64-20.6L111.64-20.6 111.34-20.65 111.34-21.8 117.14-21.65 120.94-21.8 120.94-20.65 120.39-20.6Q118.34-20.4 116.82-19.15 115.29-17.9 113.99-16.45L113.99-16.45 109.74-11.65 115.79-5Q116.94-3.75 118.24-2.55 119.54-1.35 120.99-1.1L120.99-1.1 121.54-1 121.54 0.1 116.59 0 110.39 0.1 110.39-1.05 111.19-1.15Q113.14-1.4 113.14-2.25L113.14-2.25Q113.14-2.5 113.02-2.88 112.89-3.25 112.49-3.65L112.49-3.65 107.29-9.35 102.84-4.2Q102.49-3.85 102.27-3.43 102.04-3 102.04-2.6L102.04-2.6Q102.04-2.1 102.44-1.68 102.84-1.25 103.79-1.15L103.79-1.15 104.59-1.05 104.59 0.15 99.89 0Z" opacity="1" transform="matrix(1,0,0,1,0,0)" fill="#336a86" class="wordmark-text-0" data-fill-palette-color="primary" id="text-0"></path></svg></g></svg></g></svg></g></svg></g><g><svg viewBox="0 0 158.26607743770015 167.4173778776529" height="167.4173778776529" width="158.26607743770015"><g><svg xmlns="http://www.w3.org/2000/svg" xmlns:xlink="http://www.w3.org/1999/xlink" version="1.1" x="0" y="0" viewBox="7.524999999999999 5.069 84.94999999999999 89.86200000000001" enable-background="new 0 0 100 100" xml:space="preserve" height="167.4173778776529" width="158.26607743770015" class="icon-icon-0" data-fill-palette-color="accent" id="icon-0"><g fill="#283132" data-fill-palette-color="accent"><path d="M92.475 18.308l-2.869-8.676-6.407-4.563L70.92 12.955l-0.049-0.079-7.224-3.309L50 7.024v1.697l12.875 2.869 6.578 3.358L83.78 37.895l4.654 12.83-5.34 19.302-15.053 8.891-4.454 1.558 3.281-8.75v-5.929l5.873 0.095 4.407-4.06 0.278-8.71-2.868-2.835-6.087-8.327-6.795 2.514-1.092 0.539-0.709 9.33-4.193-1.569-5.682-0.439 0 0H50h-0.004l0 0L44.7 52.806l-4.577 1.558-0.71-9.352-1.092-0.539-6.795-2.514-6.088 8.327-2.868 2.835 0.28 8.71 4.409 4.06 5.871-0.095v5.929l3.282 8.75-4.453-1.558-15.054-8.891-5.34-19.302 4.655-12.83 14.327-22.945 6.577-3.358 12.876-2.869V7.024L36.352 9.567l-7.226 3.309-0.048 0.079L17.589 5.069l-7.196 4.563-2.868 8.676 1.4 9.867 5.802 8.484L9.449 50.181l4.794 21.519 35.664 23.112v0.119L50 94.87l0.092 0.061v-0.119l35.665-23.112 4.793-21.519-5.279-13.521 5.804-8.484L92.475 18.308zM50 86.662l-5.942-1.35-5.723-5.983 3.933 1.816 5.36-0.243 2.372-1.403v-3.508-5.306l-5.263 0.033-2.855 0.647-2.518-2.31 2.518 5.354 7.515 1.466v1.997l-7.165 1.768-4.131-0.558-0.061-0.063-3.086-7.602-0.21-5.197 5.162-10.24 4.756-2.347 5.337-0.769L50 52.802v0.064l5.724 0.735 4.368 2.38 5.162 10.24-0.21 5.197-3.086 7.602-0.061 0.063-4.131 0.558-7.164-1.768v-1.997l7.514-1.466 2.52-5.354-2.52 2.31-2.854-0.647L50 70.686v5.306 3.508l2.37 1.403 5.361 0.243 3.932-1.816-5.722 5.983L50 86.662z" fill="#283132" data-fill-palette-color="accent"></path></g></svg></g></svg></g></svg></g><defs></defs></svg><rect width="395.52" height="113.69963390017114" fill="none" stroke="none" visibility="hidden"></rect></g></svg></g></svg>